<mxfile host="app.diagrams.net" agent="Mozilla/5.0 (Macintosh; Intel Mac OS X 10_15_7) AppleWebKit/537.36 (KHTML, like Gecko) Chrome/129.0.0.0 Safari/537.36" version="24.7.17">
  <diagram name="Page-1" id="-H_mtQnk-PTXWXPvYvuk">
    <mxGraphModel dx="4658" dy="3029" grid="1" gridSize="10" guides="1" tooltips="1" connect="1" arrows="1" fold="1" page="1" pageScale="1" pageWidth="1169" pageHeight="827" math="0" shadow="0">
      <root>
        <mxCell id="0" />
        <mxCell id="1" parent="0" />
        <mxCell id="bTCrIMpnv0tPwwKlhgsd-31" value="" style="rounded=0;whiteSpace=wrap;html=1;" vertex="1" parent="1">
          <mxGeometry x="-670" y="190" width="320" height="305" as="geometry" />
        </mxCell>
        <mxCell id="bTCrIMpnv0tPwwKlhgsd-10" style="edgeStyle=orthogonalEdgeStyle;rounded=0;orthogonalLoop=1;jettySize=auto;html=1;entryX=0;entryY=0.5;entryDx=0;entryDy=0;" edge="1" parent="1" source="bTCrIMpnv0tPwwKlhgsd-3" target="yvDFcet3MPlfMBib68oZ-49">
          <mxGeometry relative="1" as="geometry" />
        </mxCell>
        <mxCell id="bTCrIMpnv0tPwwKlhgsd-13" value="Запрос данных в БД" style="edgeLabel;html=1;align=center;verticalAlign=middle;resizable=0;points=[];" vertex="1" connectable="0" parent="bTCrIMpnv0tPwwKlhgsd-10">
          <mxGeometry x="-0.0277" y="-1" relative="1" as="geometry">
            <mxPoint as="offset" />
          </mxGeometry>
        </mxCell>
        <mxCell id="bTCrIMpnv0tPwwKlhgsd-11" style="edgeStyle=orthogonalEdgeStyle;rounded=0;orthogonalLoop=1;jettySize=auto;html=1;exitX=1;exitY=0.25;exitDx=0;exitDy=0;entryX=0.5;entryY=1;entryDx=0;entryDy=0;" edge="1" parent="1" source="bTCrIMpnv0tPwwKlhgsd-3" target="yvDFcet3MPlfMBib68oZ-19">
          <mxGeometry relative="1" as="geometry" />
        </mxCell>
        <mxCell id="bTCrIMpnv0tPwwKlhgsd-12" value="Запрос данных из кэша" style="edgeLabel;html=1;align=center;verticalAlign=middle;resizable=0;points=[];" vertex="1" connectable="0" parent="bTCrIMpnv0tPwwKlhgsd-11">
          <mxGeometry x="-0.1132" y="1" relative="1" as="geometry">
            <mxPoint x="1" as="offset" />
          </mxGeometry>
        </mxCell>
        <mxCell id="bTCrIMpnv0tPwwKlhgsd-3" value="" style="rounded=0;whiteSpace=wrap;html=1;" vertex="1" parent="1">
          <mxGeometry x="-150" y="270" width="180" height="300" as="geometry" />
        </mxCell>
        <mxCell id="bTCrIMpnv0tPwwKlhgsd-28" style="edgeStyle=orthogonalEdgeStyle;rounded=0;orthogonalLoop=1;jettySize=auto;html=1;exitX=0;exitY=0.25;exitDx=0;exitDy=0;entryX=1;entryY=0.5;entryDx=0;entryDy=0;" edge="1" parent="1" source="zA23MoTUsTF4_91t8viU-3" target="bTCrIMpnv0tPwwKlhgsd-6">
          <mxGeometry relative="1" as="geometry">
            <Array as="points">
              <mxPoint x="-210" y="429" />
              <mxPoint x="-210" y="-12" />
            </Array>
          </mxGeometry>
        </mxCell>
        <mxCell id="bTCrIMpnv0tPwwKlhgsd-36" value="Регистрация" style="edgeLabel;html=1;align=center;verticalAlign=middle;resizable=0;points=[];" vertex="1" connectable="0" parent="bTCrIMpnv0tPwwKlhgsd-28">
          <mxGeometry x="-0.0109" relative="1" as="geometry">
            <mxPoint x="1" y="1" as="offset" />
          </mxGeometry>
        </mxCell>
        <mxCell id="zA23MoTUsTF4_91t8viU-3" value="pymongo-api" style="rounded=1;whiteSpace=wrap;html=1;" parent="1" vertex="1">
          <mxGeometry x="-120" y="414" width="120" height="60" as="geometry" />
        </mxCell>
        <mxCell id="yvDFcet3MPlfMBib68oZ-27" value="" style="group" parent="1" vertex="1" connectable="0">
          <mxGeometry x="1120" y="680" width="240" height="170" as="geometry" />
        </mxCell>
        <mxCell id="yvDFcet3MPlfMBib68oZ-23" value="" style="rounded=0;whiteSpace=wrap;html=1;" parent="yvDFcet3MPlfMBib68oZ-27" vertex="1">
          <mxGeometry width="240" height="170" as="geometry" />
        </mxCell>
        <mxCell id="yvDFcet3MPlfMBib68oZ-1" value="MongoDB&lt;div&gt;shard3-1&lt;/div&gt;" style="shape=cylinder3;whiteSpace=wrap;html=1;boundedLbl=1;backgroundOutline=1;size=15;" parent="yvDFcet3MPlfMBib68oZ-27" vertex="1">
          <mxGeometry x="20" y="70" width="60" height="80" as="geometry" />
        </mxCell>
        <mxCell id="yvDFcet3MPlfMBib68oZ-14" value="MongoDB&lt;div&gt;shard3-2&lt;/div&gt;" style="shape=cylinder3;whiteSpace=wrap;html=1;boundedLbl=1;backgroundOutline=1;size=15;" parent="yvDFcet3MPlfMBib68oZ-27" vertex="1">
          <mxGeometry x="90" y="70" width="60" height="80" as="geometry" />
        </mxCell>
        <mxCell id="yvDFcet3MPlfMBib68oZ-15" value="MongoDB&lt;div&gt;shard3-3&lt;/div&gt;" style="shape=cylinder3;whiteSpace=wrap;html=1;boundedLbl=1;backgroundOutline=1;size=15;" parent="yvDFcet3MPlfMBib68oZ-27" vertex="1">
          <mxGeometry x="160" y="70" width="60" height="80" as="geometry" />
        </mxCell>
        <mxCell id="yvDFcet3MPlfMBib68oZ-24" value="Replica set" style="text;html=1;align=center;verticalAlign=middle;whiteSpace=wrap;rounded=0;" parent="yvDFcet3MPlfMBib68oZ-27" vertex="1">
          <mxGeometry x="75" y="10" width="90" height="30" as="geometry" />
        </mxCell>
        <mxCell id="yvDFcet3MPlfMBib68oZ-28" value="" style="group" parent="1" vertex="1" connectable="0">
          <mxGeometry x="1120" y="335" width="240" height="170" as="geometry" />
        </mxCell>
        <mxCell id="yvDFcet3MPlfMBib68oZ-25" value="" style="rounded=0;whiteSpace=wrap;html=1;" parent="yvDFcet3MPlfMBib68oZ-28" vertex="1">
          <mxGeometry width="240" height="170" as="geometry" />
        </mxCell>
        <mxCell id="zA23MoTUsTF4_91t8viU-2" value="MongoDB&lt;br&gt;shard2-1" style="shape=cylinder3;whiteSpace=wrap;html=1;boundedLbl=1;backgroundOutline=1;size=15;" parent="yvDFcet3MPlfMBib68oZ-28" vertex="1">
          <mxGeometry x="20" y="70" width="60" height="80" as="geometry" />
        </mxCell>
        <mxCell id="yvDFcet3MPlfMBib68oZ-12" value="MongoDB&lt;br&gt;shard2-2" style="shape=cylinder3;whiteSpace=wrap;html=1;boundedLbl=1;backgroundOutline=1;size=15;" parent="yvDFcet3MPlfMBib68oZ-28" vertex="1">
          <mxGeometry x="90" y="70" width="60" height="80" as="geometry" />
        </mxCell>
        <mxCell id="yvDFcet3MPlfMBib68oZ-13" value="MongoDB&lt;br&gt;shard2-3" style="shape=cylinder3;whiteSpace=wrap;html=1;boundedLbl=1;backgroundOutline=1;size=15;" parent="yvDFcet3MPlfMBib68oZ-28" vertex="1">
          <mxGeometry x="160" y="70" width="60" height="80" as="geometry" />
        </mxCell>
        <mxCell id="yvDFcet3MPlfMBib68oZ-26" value="Replica set" style="text;html=1;align=center;verticalAlign=middle;whiteSpace=wrap;rounded=0;" parent="yvDFcet3MPlfMBib68oZ-28" vertex="1">
          <mxGeometry x="75" y="10" width="90" height="30" as="geometry" />
        </mxCell>
        <mxCell id="yvDFcet3MPlfMBib68oZ-38" value="" style="group" parent="1" vertex="1" connectable="0">
          <mxGeometry x="1120" y="-30" width="240" height="170" as="geometry" />
        </mxCell>
        <mxCell id="yvDFcet3MPlfMBib68oZ-39" value="" style="rounded=0;whiteSpace=wrap;html=1;" parent="yvDFcet3MPlfMBib68oZ-38" vertex="1">
          <mxGeometry width="240" height="170" as="geometry" />
        </mxCell>
        <mxCell id="yvDFcet3MPlfMBib68oZ-40" value="MongoDB&lt;div&gt;shard1-1&lt;/div&gt;" style="shape=cylinder3;whiteSpace=wrap;html=1;boundedLbl=1;backgroundOutline=1;size=15;" parent="yvDFcet3MPlfMBib68oZ-38" vertex="1">
          <mxGeometry x="20" y="70" width="60" height="80" as="geometry" />
        </mxCell>
        <mxCell id="yvDFcet3MPlfMBib68oZ-41" value="MongoDB&lt;div&gt;shard1-2&lt;/div&gt;" style="shape=cylinder3;whiteSpace=wrap;html=1;boundedLbl=1;backgroundOutline=1;size=15;" parent="yvDFcet3MPlfMBib68oZ-38" vertex="1">
          <mxGeometry x="90" y="70" width="60" height="80" as="geometry" />
        </mxCell>
        <mxCell id="yvDFcet3MPlfMBib68oZ-42" value="MongoDB&lt;div&gt;shard1-3&lt;/div&gt;" style="shape=cylinder3;whiteSpace=wrap;html=1;boundedLbl=1;backgroundOutline=1;size=15;" parent="yvDFcet3MPlfMBib68oZ-38" vertex="1">
          <mxGeometry x="160" y="70" width="60" height="80" as="geometry" />
        </mxCell>
        <mxCell id="yvDFcet3MPlfMBib68oZ-43" value="Replica set" style="text;html=1;align=center;verticalAlign=middle;whiteSpace=wrap;rounded=0;" parent="yvDFcet3MPlfMBib68oZ-38" vertex="1">
          <mxGeometry x="75" y="10" width="90" height="30" as="geometry" />
        </mxCell>
        <mxCell id="yvDFcet3MPlfMBib68oZ-53" value="" style="group" parent="1" vertex="1" connectable="0">
          <mxGeometry x="680" y="-130" width="160" height="270" as="geometry" />
        </mxCell>
        <mxCell id="yvDFcet3MPlfMBib68oZ-36" value="" style="rounded=0;whiteSpace=wrap;html=1;" parent="yvDFcet3MPlfMBib68oZ-53" vertex="1">
          <mxGeometry width="160" height="270" as="geometry" />
        </mxCell>
        <mxCell id="yvDFcet3MPlfMBib68oZ-7" value="Mongo config server" style="rounded=1;whiteSpace=wrap;html=1;" parent="yvDFcet3MPlfMBib68oZ-53" vertex="1">
          <mxGeometry x="20" y="50" width="120" height="60" as="geometry" />
        </mxCell>
        <mxCell id="yvDFcet3MPlfMBib68oZ-34" value="Mongo config server" style="rounded=1;whiteSpace=wrap;html=1;" parent="yvDFcet3MPlfMBib68oZ-53" vertex="1">
          <mxGeometry x="20" y="120" width="120" height="60" as="geometry" />
        </mxCell>
        <mxCell id="yvDFcet3MPlfMBib68oZ-35" value="Mongo config server" style="rounded=1;whiteSpace=wrap;html=1;" parent="yvDFcet3MPlfMBib68oZ-53" vertex="1">
          <mxGeometry x="20" y="190" width="120" height="60" as="geometry" />
        </mxCell>
        <mxCell id="yvDFcet3MPlfMBib68oZ-51" value="Replica set" style="text;html=1;align=center;verticalAlign=middle;whiteSpace=wrap;rounded=0;" parent="yvDFcet3MPlfMBib68oZ-53" vertex="1">
          <mxGeometry x="35" y="10" width="90" height="30" as="geometry" />
        </mxCell>
        <mxCell id="yvDFcet3MPlfMBib68oZ-54" value="" style="group" parent="1" vertex="1" connectable="0">
          <mxGeometry x="680" y="285" width="160" height="270" as="geometry" />
        </mxCell>
        <mxCell id="yvDFcet3MPlfMBib68oZ-49" value="" style="rounded=0;whiteSpace=wrap;html=1;" parent="yvDFcet3MPlfMBib68oZ-54" vertex="1">
          <mxGeometry width="160" height="270" as="geometry" />
        </mxCell>
        <mxCell id="yvDFcet3MPlfMBib68oZ-2" value="Mongo router" style="rounded=1;whiteSpace=wrap;html=1;" parent="yvDFcet3MPlfMBib68oZ-54" vertex="1">
          <mxGeometry x="20" y="50" width="120" height="60" as="geometry" />
        </mxCell>
        <mxCell id="yvDFcet3MPlfMBib68oZ-47" value="Mongo router" style="rounded=1;whiteSpace=wrap;html=1;" parent="yvDFcet3MPlfMBib68oZ-54" vertex="1">
          <mxGeometry x="20" y="120" width="120" height="60" as="geometry" />
        </mxCell>
        <mxCell id="yvDFcet3MPlfMBib68oZ-48" value="Mongo router" style="rounded=1;whiteSpace=wrap;html=1;" parent="yvDFcet3MPlfMBib68oZ-54" vertex="1">
          <mxGeometry x="20" y="190" width="120" height="60" as="geometry" />
        </mxCell>
        <mxCell id="yvDFcet3MPlfMBib68oZ-52" value="Replica set" style="text;html=1;align=center;verticalAlign=middle;whiteSpace=wrap;rounded=0;" parent="yvDFcet3MPlfMBib68oZ-54" vertex="1">
          <mxGeometry x="35" y="10" width="90" height="30" as="geometry" />
        </mxCell>
        <mxCell id="yvDFcet3MPlfMBib68oZ-58" style="edgeStyle=orthogonalEdgeStyle;rounded=0;orthogonalLoop=1;jettySize=auto;html=1;entryX=0;entryY=0.5;entryDx=0;entryDy=0;" parent="1" source="yvDFcet3MPlfMBib68oZ-49" target="yvDFcet3MPlfMBib68oZ-25" edge="1">
          <mxGeometry relative="1" as="geometry" />
        </mxCell>
        <mxCell id="bTCrIMpnv0tPwwKlhgsd-15" value="&amp;lt;sharding_key&amp;gt;" style="edgeLabel;html=1;align=center;verticalAlign=middle;resizable=0;points=[];" vertex="1" connectable="0" parent="yvDFcet3MPlfMBib68oZ-58">
          <mxGeometry x="-0.0143" y="-1" relative="1" as="geometry">
            <mxPoint x="1" as="offset" />
          </mxGeometry>
        </mxCell>
        <mxCell id="yvDFcet3MPlfMBib68oZ-59" style="edgeStyle=orthogonalEdgeStyle;rounded=0;orthogonalLoop=1;jettySize=auto;html=1;exitX=1;exitY=0.25;exitDx=0;exitDy=0;entryX=0;entryY=0.5;entryDx=0;entryDy=0;" parent="1" source="yvDFcet3MPlfMBib68oZ-49" target="yvDFcet3MPlfMBib68oZ-39" edge="1">
          <mxGeometry relative="1" as="geometry" />
        </mxCell>
        <mxCell id="bTCrIMpnv0tPwwKlhgsd-14" value="&amp;lt;sharding_key&amp;gt;" style="edgeLabel;html=1;align=center;verticalAlign=middle;resizable=0;points=[];" vertex="1" connectable="0" parent="yvDFcet3MPlfMBib68oZ-59">
          <mxGeometry x="-0.0492" y="-2" relative="1" as="geometry">
            <mxPoint as="offset" />
          </mxGeometry>
        </mxCell>
        <mxCell id="yvDFcet3MPlfMBib68oZ-60" style="edgeStyle=orthogonalEdgeStyle;rounded=0;orthogonalLoop=1;jettySize=auto;html=1;exitX=1;exitY=0.75;exitDx=0;exitDy=0;entryX=0;entryY=0.5;entryDx=0;entryDy=0;" parent="1" source="yvDFcet3MPlfMBib68oZ-49" target="yvDFcet3MPlfMBib68oZ-23" edge="1">
          <mxGeometry relative="1" as="geometry" />
        </mxCell>
        <mxCell id="bTCrIMpnv0tPwwKlhgsd-16" value="&amp;lt;sharding_key&amp;gt;" style="edgeLabel;html=1;align=center;verticalAlign=middle;resizable=0;points=[];" vertex="1" connectable="0" parent="yvDFcet3MPlfMBib68oZ-60">
          <mxGeometry x="0.0277" y="-1" relative="1" as="geometry">
            <mxPoint as="offset" />
          </mxGeometry>
        </mxCell>
        <mxCell id="yvDFcet3MPlfMBib68oZ-62" style="edgeStyle=orthogonalEdgeStyle;rounded=0;orthogonalLoop=1;jettySize=auto;html=1;exitX=1;exitY=0.5;exitDx=0;exitDy=0;entryX=0.5;entryY=0;entryDx=0;entryDy=0;" parent="1" source="yvDFcet3MPlfMBib68oZ-25" target="yvDFcet3MPlfMBib68oZ-36" edge="1">
          <mxGeometry relative="1" as="geometry">
            <Array as="points">
              <mxPoint x="1500" y="420" />
              <mxPoint x="1500" y="-150" />
              <mxPoint x="760" y="-150" />
            </Array>
          </mxGeometry>
        </mxCell>
        <mxCell id="bTCrIMpnv0tPwwKlhgsd-18" value="информация о шарде" style="edgeLabel;html=1;align=center;verticalAlign=middle;resizable=0;points=[];" vertex="1" connectable="0" parent="yvDFcet3MPlfMBib68oZ-62">
          <mxGeometry x="-0.4277" y="-1" relative="1" as="geometry">
            <mxPoint y="-1" as="offset" />
          </mxGeometry>
        </mxCell>
        <mxCell id="yvDFcet3MPlfMBib68oZ-65" style="edgeStyle=orthogonalEdgeStyle;rounded=0;orthogonalLoop=1;jettySize=auto;html=1;exitX=1;exitY=0.5;exitDx=0;exitDy=0;entryX=1;entryY=0.25;entryDx=0;entryDy=0;" parent="1" source="yvDFcet3MPlfMBib68oZ-23" target="yvDFcet3MPlfMBib68oZ-36" edge="1">
          <mxGeometry relative="1" as="geometry">
            <Array as="points">
              <mxPoint x="1430" y="765" />
              <mxPoint x="1430" y="-63" />
            </Array>
          </mxGeometry>
        </mxCell>
        <mxCell id="bTCrIMpnv0tPwwKlhgsd-17" value="информация о шарде" style="edgeLabel;html=1;align=center;verticalAlign=middle;resizable=0;points=[];" vertex="1" connectable="0" parent="yvDFcet3MPlfMBib68oZ-65">
          <mxGeometry x="-0.2618" y="-5" relative="1" as="geometry">
            <mxPoint as="offset" />
          </mxGeometry>
        </mxCell>
        <mxCell id="yvDFcet3MPlfMBib68oZ-66" style="edgeStyle=orthogonalEdgeStyle;rounded=0;orthogonalLoop=1;jettySize=auto;html=1;exitX=0;exitY=0.25;exitDx=0;exitDy=0;entryX=1;entryY=0.5;entryDx=0;entryDy=0;" parent="1" source="yvDFcet3MPlfMBib68oZ-39" target="yvDFcet3MPlfMBib68oZ-36" edge="1">
          <mxGeometry relative="1" as="geometry" />
        </mxCell>
        <mxCell id="bTCrIMpnv0tPwwKlhgsd-19" value="информация о шарде" style="edgeLabel;html=1;align=center;verticalAlign=middle;resizable=0;points=[];" vertex="1" connectable="0" parent="yvDFcet3MPlfMBib68oZ-66">
          <mxGeometry x="-0.2347" y="-4" relative="1" as="geometry">
            <mxPoint x="-1" as="offset" />
          </mxGeometry>
        </mxCell>
        <mxCell id="yvDFcet3MPlfMBib68oZ-71" value="" style="group" parent="1" vertex="1" connectable="0">
          <mxGeometry x="250" y="5" width="320" height="280" as="geometry" />
        </mxCell>
        <mxCell id="yvDFcet3MPlfMBib68oZ-19" value="" style="rounded=0;whiteSpace=wrap;html=1;container=0;" parent="yvDFcet3MPlfMBib68oZ-71" vertex="1">
          <mxGeometry width="320" height="280" as="geometry" />
        </mxCell>
        <mxCell id="yvDFcet3MPlfMBib68oZ-16" value="Redis3-1" style="rounded=1;whiteSpace=wrap;html=1;container=0;" parent="yvDFcet3MPlfMBib68oZ-71" vertex="1">
          <mxGeometry x="35" y="200" width="120" height="60" as="geometry" />
        </mxCell>
        <mxCell id="yvDFcet3MPlfMBib68oZ-17" value="Redis2-1" style="rounded=1;whiteSpace=wrap;html=1;container=0;" parent="yvDFcet3MPlfMBib68oZ-71" vertex="1">
          <mxGeometry x="35" y="130" width="120" height="60" as="geometry" />
        </mxCell>
        <mxCell id="yvDFcet3MPlfMBib68oZ-18" value="Redis1-1" style="rounded=1;whiteSpace=wrap;html=1;container=0;" parent="yvDFcet3MPlfMBib68oZ-71" vertex="1">
          <mxGeometry x="35" y="60" width="120" height="60" as="geometry" />
        </mxCell>
        <mxCell id="yvDFcet3MPlfMBib68oZ-20" value="Distributed cluster" style="text;html=1;align=center;verticalAlign=middle;whiteSpace=wrap;rounded=0;container=0;" parent="yvDFcet3MPlfMBib68oZ-71" vertex="1">
          <mxGeometry x="130" y="10" width="60" height="30" as="geometry" />
        </mxCell>
        <mxCell id="yvDFcet3MPlfMBib68oZ-67" value="Redis1-1" style="rounded=1;whiteSpace=wrap;html=1;container=0;" parent="yvDFcet3MPlfMBib68oZ-71" vertex="1">
          <mxGeometry x="170" y="60" width="120" height="60" as="geometry" />
        </mxCell>
        <mxCell id="yvDFcet3MPlfMBib68oZ-68" value="Redis2-2" style="rounded=1;whiteSpace=wrap;html=1;container=0;" parent="yvDFcet3MPlfMBib68oZ-71" vertex="1">
          <mxGeometry x="170" y="130" width="120" height="60" as="geometry" />
        </mxCell>
        <mxCell id="yvDFcet3MPlfMBib68oZ-69" value="Redis3-2" style="rounded=1;whiteSpace=wrap;html=1;container=0;" parent="yvDFcet3MPlfMBib68oZ-71" vertex="1">
          <mxGeometry x="170" y="200" width="120" height="60" as="geometry" />
        </mxCell>
        <mxCell id="bTCrIMpnv0tPwwKlhgsd-27" style="edgeStyle=orthogonalEdgeStyle;rounded=0;orthogonalLoop=1;jettySize=auto;html=1;exitX=0;exitY=0.25;exitDx=0;exitDy=0;entryX=1;entryY=0.25;entryDx=0;entryDy=0;" edge="1" parent="1" source="bTCrIMpnv0tPwwKlhgsd-1" target="bTCrIMpnv0tPwwKlhgsd-6">
          <mxGeometry relative="1" as="geometry">
            <Array as="points">
              <mxPoint x="-180" y="345" />
              <mxPoint x="-180" y="-31" />
            </Array>
          </mxGeometry>
        </mxCell>
        <mxCell id="bTCrIMpnv0tPwwKlhgsd-1" value="pymongo-api" style="rounded=1;whiteSpace=wrap;html=1;" vertex="1" parent="1">
          <mxGeometry x="-120" y="330" width="120" height="60" as="geometry" />
        </mxCell>
        <mxCell id="bTCrIMpnv0tPwwKlhgsd-29" style="edgeStyle=orthogonalEdgeStyle;rounded=0;orthogonalLoop=1;jettySize=auto;html=1;exitX=0;exitY=0.25;exitDx=0;exitDy=0;entryX=1;entryY=0.75;entryDx=0;entryDy=0;" edge="1" parent="1" source="bTCrIMpnv0tPwwKlhgsd-2" target="bTCrIMpnv0tPwwKlhgsd-6">
          <mxGeometry relative="1" as="geometry">
            <Array as="points">
              <mxPoint x="-230" y="505" />
              <mxPoint x="-230" y="6" />
            </Array>
          </mxGeometry>
        </mxCell>
        <mxCell id="bTCrIMpnv0tPwwKlhgsd-2" value="pymongo-api" style="rounded=1;whiteSpace=wrap;html=1;" vertex="1" parent="1">
          <mxGeometry x="-120" y="490" width="120" height="60" as="geometry" />
        </mxCell>
        <mxCell id="bTCrIMpnv0tPwwKlhgsd-23" style="edgeStyle=orthogonalEdgeStyle;rounded=0;orthogonalLoop=1;jettySize=auto;html=1;entryX=0;entryY=0.5;entryDx=0;entryDy=0;" edge="1" parent="1" source="bTCrIMpnv0tPwwKlhgsd-4" target="bTCrIMpnv0tPwwKlhgsd-5">
          <mxGeometry relative="1" as="geometry" />
        </mxCell>
        <mxCell id="bTCrIMpnv0tPwwKlhgsd-24" value="запрос в бэкенд" style="edgeLabel;html=1;align=center;verticalAlign=middle;resizable=0;points=[];" vertex="1" connectable="0" parent="bTCrIMpnv0tPwwKlhgsd-23">
          <mxGeometry x="0.0175" y="-1" relative="1" as="geometry">
            <mxPoint as="offset" />
          </mxGeometry>
        </mxCell>
        <mxCell id="bTCrIMpnv0tPwwKlhgsd-4" value="Frontend" style="rounded=1;whiteSpace=wrap;html=1;fontSize=51;" vertex="1" parent="1">
          <mxGeometry x="-1169" y="310" width="350" height="180" as="geometry" />
        </mxCell>
        <mxCell id="bTCrIMpnv0tPwwKlhgsd-25" style="edgeStyle=orthogonalEdgeStyle;rounded=0;orthogonalLoop=1;jettySize=auto;html=1;entryX=0.5;entryY=1;entryDx=0;entryDy=0;exitX=0.5;exitY=0;exitDx=0;exitDy=0;" edge="1" parent="1" source="bTCrIMpnv0tPwwKlhgsd-30" target="bTCrIMpnv0tPwwKlhgsd-6">
          <mxGeometry relative="1" as="geometry" />
        </mxCell>
        <mxCell id="bTCrIMpnv0tPwwKlhgsd-26" value="получить список сервисов" style="edgeLabel;html=1;align=center;verticalAlign=middle;resizable=0;points=[];" vertex="1" connectable="0" parent="bTCrIMpnv0tPwwKlhgsd-25">
          <mxGeometry x="0.3395" y="-3" relative="1" as="geometry">
            <mxPoint as="offset" />
          </mxGeometry>
        </mxCell>
        <mxCell id="bTCrIMpnv0tPwwKlhgsd-32" style="edgeStyle=orthogonalEdgeStyle;rounded=0;orthogonalLoop=1;jettySize=auto;html=1;entryX=0;entryY=0.5;entryDx=0;entryDy=0;" edge="1" parent="1" source="bTCrIMpnv0tPwwKlhgsd-5" target="bTCrIMpnv0tPwwKlhgsd-1">
          <mxGeometry relative="1" as="geometry" />
        </mxCell>
        <mxCell id="bTCrIMpnv0tPwwKlhgsd-33" style="edgeStyle=orthogonalEdgeStyle;rounded=0;orthogonalLoop=1;jettySize=auto;html=1;entryX=0;entryY=0.5;entryDx=0;entryDy=0;" edge="1" parent="1" source="bTCrIMpnv0tPwwKlhgsd-5" target="zA23MoTUsTF4_91t8viU-3">
          <mxGeometry relative="1" as="geometry" />
        </mxCell>
        <mxCell id="bTCrIMpnv0tPwwKlhgsd-34" style="edgeStyle=orthogonalEdgeStyle;rounded=0;orthogonalLoop=1;jettySize=auto;html=1;entryX=0;entryY=0.5;entryDx=0;entryDy=0;" edge="1" parent="1" source="bTCrIMpnv0tPwwKlhgsd-5" target="bTCrIMpnv0tPwwKlhgsd-2">
          <mxGeometry relative="1" as="geometry" />
        </mxCell>
        <mxCell id="bTCrIMpnv0tPwwKlhgsd-35" value="Запрос в бэкенд" style="edgeLabel;html=1;align=center;verticalAlign=middle;resizable=0;points=[];" vertex="1" connectable="0" parent="bTCrIMpnv0tPwwKlhgsd-34">
          <mxGeometry x="-0.5616" y="-3" relative="1" as="geometry">
            <mxPoint as="offset" />
          </mxGeometry>
        </mxCell>
        <mxCell id="bTCrIMpnv0tPwwKlhgsd-5" value="API Gateway" style="rounded=1;whiteSpace=wrap;html=1;" vertex="1" parent="1">
          <mxGeometry x="-610" y="350" width="180" height="100" as="geometry" />
        </mxCell>
        <mxCell id="bTCrIMpnv0tPwwKlhgsd-6" value="Consul" style="rounded=1;whiteSpace=wrap;html=1;" vertex="1" parent="1">
          <mxGeometry x="-607" y="-50" width="174" height="75" as="geometry" />
        </mxCell>
        <mxCell id="bTCrIMpnv0tPwwKlhgsd-21" style="edgeStyle=orthogonalEdgeStyle;rounded=0;orthogonalLoop=1;jettySize=auto;html=1;entryX=0.5;entryY=1;entryDx=0;entryDy=0;exitX=0.5;exitY=0;exitDx=0;exitDy=0;" edge="1" parent="1" source="yvDFcet3MPlfMBib68oZ-49" target="yvDFcet3MPlfMBib68oZ-36">
          <mxGeometry relative="1" as="geometry" />
        </mxCell>
        <mxCell id="bTCrIMpnv0tPwwKlhgsd-22" value="получение информации&lt;div&gt;&amp;nbsp;о конфигурации кластера&lt;/div&gt;" style="edgeLabel;html=1;align=center;verticalAlign=middle;resizable=0;points=[];" vertex="1" connectable="0" parent="bTCrIMpnv0tPwwKlhgsd-21">
          <mxGeometry x="0.0161" y="-3" relative="1" as="geometry">
            <mxPoint as="offset" />
          </mxGeometry>
        </mxCell>
        <mxCell id="bTCrIMpnv0tPwwKlhgsd-30" value="consul kv" style="rounded=1;whiteSpace=wrap;html=1;" vertex="1" parent="1">
          <mxGeometry x="-580" y="250" width="120" height="60" as="geometry" />
        </mxCell>
        <mxCell id="bTCrIMpnv0tPwwKlhgsd-37" value="&lt;font style=&quot;font-size: 32px;&quot;&gt;CDN&lt;/font&gt;" style="ellipse;shape=cloud;whiteSpace=wrap;html=1;" vertex="1" parent="1">
          <mxGeometry x="-670" y="770" width="300" height="200" as="geometry" />
        </mxCell>
        <mxCell id="bTCrIMpnv0tPwwKlhgsd-38" style="edgeStyle=orthogonalEdgeStyle;rounded=0;orthogonalLoop=1;jettySize=auto;html=1;entryX=0.07;entryY=0.4;entryDx=0;entryDy=0;entryPerimeter=0;" edge="1" parent="1" source="bTCrIMpnv0tPwwKlhgsd-4" target="bTCrIMpnv0tPwwKlhgsd-37">
          <mxGeometry relative="1" as="geometry">
            <Array as="points">
              <mxPoint x="-980" y="850" />
            </Array>
          </mxGeometry>
        </mxCell>
        <mxCell id="bTCrIMpnv0tPwwKlhgsd-39" value="запрос статики" style="edgeLabel;html=1;align=center;verticalAlign=middle;resizable=0;points=[];" vertex="1" connectable="0" parent="bTCrIMpnv0tPwwKlhgsd-38">
          <mxGeometry x="-0.1842" y="3" relative="1" as="geometry">
            <mxPoint as="offset" />
          </mxGeometry>
        </mxCell>
      </root>
    </mxGraphModel>
  </diagram>
</mxfile>
